PathFileType	4	(X/Y/Z)	6_coords_data.trc
DataRate	CameraRate	NumFrames	NumMarkers	Units	OrigDataRate	OrigDataStartFrame	OrigNumFrames
30.0	30.0	5	21	m	30.0	10	68
Frame#	Time	THUMB_TIP	THUMB_IP	THUMB_MCP	THUMB_CMC	INDEX_TIP	INDEX_DIP	INDEX_PIP	INDEX_MCP	MIDDLE_TIP	MIDDLE_DIP	MIDDLE_PIP	MIDDLE_MCP	RING_TIP	RING_DIP	RING_PIP	RING_MCP	PINKY_TIP	PINKY_DIP	PINKY_PIP	PINKY_MCP	WRIST
X1	Y1	Z1	X2	Y2	Z2	X3	Y3	Z3	X4	Y4	Z4	X5	Y5	Z5	X6	Y6	Z6	X7	Y7	Z7	X8	Y8	Z8	X9	Y9	Z9	X10	Y10	Z10	X11	Y11	Z11	X12	Y12	Z12	X13	Y13	Z13	X14	Y14	Z14	X15	Y15	Z15	X16	Y16	Z16	X17	Y17	Z17	X18	Y18	Z18	X19	Y19	Z19	X20	Y20	Z20	X21	Y21	Z21
9	0.3	0.011133700370788575	-0.1873090057373047	1.1126199951171876	0.014858699798583985	-0.1606280059814453	1.108219970703125	-0.000515727996826171	-0.13250700378417968	1.1046800537109376	-0.0076478800773620605	-0.09220709991455078	1.1025400390625	0.04360449981689453	-0.15568899536132813	0.9766840209960937	0.0383656005859375	-0.14423500061035155	0.9957579956054687	0.0332156982421875	-0.13138299560546876	1.0164400024414062	0.020314199447631836	-0.10758399963378906	1.047260009765625	0.03420240020751953	-0.09448519897460937	0.9402160034179687	0.033669601440429686	-0.09339119720458984	0.9666859741210938	0.029953100204467772	-0.09087229919433594	0.9978280029296875	0.018519899368286134	-0.08442140197753906	1.038239990234375	0.04177220153808594	-0.04012200164794922	0.95410302734375	0.040175201416015625	-0.0464109992980957	0.9781929931640625	0.03661420059204101	-0.053185298919677736	1.0048800048828126	0.024834400177001954	-0.06145289993286133	1.0414599609375	0.04867480087280274	0.01010669994354248	1.0148599853515625	0.044985401153564454	-0.005316669940948486	1.0276199951171876	0.03882580184936523	-0.01964360046386719	1.03827001953125	0.02352750015258789	-0.04156100082397461	1.05143994140625	-0.02783989906311035	-0.058821300506591796	1.107989990234375
10	0.3333333333333333	0.01087090015411377	-0.18727099609375	1.1128399658203125	0.014712800025939941	-0.16068299865722657	1.108449951171875	-0.000613358974456787	-0.132468994140625	1.10481005859375	-0.007797979831695557	-0.09233200073242187	1.10297998046875	0.04351359939575195	-0.15558700561523436	0.976822998046875	0.0382510986328125	-0.14415699768066406	0.9958569946289062	0.033065799713134766	-0.13134100341796875	1.0165599975585937	0.020066499710083008	-0.10763300323486329	1.0473199462890626	0.03438710021972656	-0.09429660034179688	0.9404149780273438	0.03385409927368164	-0.09317289733886719	0.9670079956054688	0.02990629959106445	-0.09068180084228515	0.9981380004882813	0.018277000427246094	-0.08437789916992187	1.0384200439453124	0.04208359909057617	-0.04010309982299805	0.9543590087890625	0.0403583984375	-0.046369098663330076	0.9783939819335937	0.036610000610351565	-0.05315169906616211	1.0050800170898437	0.024593000411987306	-0.06138999938964844	1.04168994140625	0.048587799072265625	0.010138699531555176	1.01502001953125	0.04486330032348633	-0.005256450176239014	1.0277900390625	0.03869649887084961	-0.019598199844360353	1.0384100341796876	0.023369300842285157	-0.04150910186767578	1.0516099853515626	-0.027966800689697265	-0.05882609939575195	1.1081700439453126
11	0.36666666666666664	0.010989999771118164	-0.18716400146484374	1.1131400146484376	0.014810700416564942	-0.1604510040283203	1.1086600341796875	-0.000706234991550445	-0.13238099670410156	1.104949951171875	-0.007879779815673829	-0.09227169799804688	1.10306005859375	0.04350799942016602	-0.15544700622558594	0.9769520263671875	0.03821419906616211	-0.14401100158691407	0.9960800170898437	0.03299720001220703	-0.1311739959716797	1.0168300170898437	0.019979499816894532	-0.10752300262451171	1.04752001953125	0.03438479995727539	-0.09409549713134766	0.9406160278320312	0.03369919967651367	-0.09307479858398438	0.9671160278320312	0.029640300750732422	-0.09053040313720703	0.99835302734375	0.018131000518798828	-0.08426809692382813	1.03852001953125	0.04210390090942383	-0.039965599060058594	0.9546279907226562	0.040274700164794924	-0.04625210189819336	0.9787039794921875	0.036516700744628906	-0.05301530075073242	1.0054000244140624	0.02436440086364746	-0.061284000396728516	1.041800048828125	0.04839849853515625	0.010302000045776367	1.0153099975585937	0.044640800476074216	-0.005136789798736573	1.028050048828125	0.03847779846191406	-0.019486600875854493	1.0386800537109375	0.023145299911499023	-0.04141109848022461	1.0518299560546875	-0.028242300033569336	-0.05868930053710938	1.108489990234375
12	0.4	0.011090900421142578	-0.18711399841308593	1.113550048828125	0.014641799926757813	-0.16035499572753906	1.1090699462890625	-0.000807289004325866	-0.1322949981689453	1.1053399658203125	-0.007754670143127441	-0.0922667999267578	1.103260009765625	0.04315530014038086	-0.1555760040283203	0.97722900390625	0.037913501739501955	-0.14413600158691406	0.9962969970703125	0.03272090148925781	-0.13134100341796875	1.01697998046875	0.019652700424194335	-0.1075469970703125	1.047800048828125	0.03421160125732422	-0.09433409881591796	0.9408610229492187	0.033572399139404296	-0.09323919677734376	0.9673090209960937	0.02956559944152832	-0.0907073974609375	0.9984940185546874	0.017890300750732422	-0.08437380218505859	1.038760009765625	0.04231370162963867	-0.04022169876098633	0.954822021484375	0.040371700286865236	-0.04650529861450195	0.9789550170898438	0.03640589904785156	-0.053141399383544924	1.0056099853515625	0.02423240089416504	-0.06143930053710937	1.0421700439453125	0.04858140182495117	0.010065199851989746	1.0155700073242186	0.044730899810791015	-0.005369550228118897	1.02831005859375	0.038452201843261716	-0.01967919921875	1.0389100341796875	0.02305139923095703	-0.041559101104736325	1.0520799560546874	-0.02815909957885742	-0.05870809936523438	1.1085400390625
13	0.43333333333333335	0.011009699821472168	-0.1872570037841797	1.113949951171875	0.014632699966430664	-0.16051199340820313	1.10947998046875	-0.0009769840240478511	-0.1324290008544922	1.1055999755859376	-0.008063400268554687	-0.09235900115966797	1.10381005859375	0.04301750183105469	-0.15577999877929688	0.9774970092773437	0.03772389984130859	-0.14440199279785157	0.9965549926757813	0.032494701385498044	-0.131552001953125	1.0172899780273437	0.019358800888061523	-0.10779100036621093	1.048030029296875	0.03419509887695313	-0.09468560028076171	0.9411489868164062	0.03351390075683594	-0.09356520080566406	0.9676500244140624	0.029392799377441405	-0.09105159759521485	0.9987589721679687	0.017448200225830077	-0.08460240173339843	1.0390799560546875	0.04225640106201172	-0.04068130111694336	0.9550560302734376	0.04028160095214844	-0.04692649841308594	0.9791649780273437	0.03618140029907226	-0.0535260009765625	1.0056900024414062	0.023951099395751952	-0.061680099487304685	1.0424100341796876	0.04834749984741211	0.009809940338134766	1.0156099853515625	0.04450749969482422	-0.005589930057525635	1.0284100341796876	0.03823929977416992	-0.01994420051574707	1.0390799560546875	0.02273240089416504	-0.04178680038452148	1.052219970703125	-0.028275800704956056	-0.05886980056762695	1.1088699951171874
